<svg width="160" height="44" viewBox="0 0 160 44" fill="none" xmlns="http://www.w3.org/2000/svg">
<path fill-rule="evenodd" clip-rule="evenodd" d="M157.888 39.5961L157.914 4.42737V4.42628C157.913 3.07734 156.78 2.00056 155.381 2.00056H4.61884C3.22693 2.00056 2.08607 3.09567 2.08607 4.42737V39.5975C2.08607 40.9146 3.21168 41.9994 4.61884 41.9994H155.381C156.773 41.9994 157.888 40.9292 157.888 39.5961ZM160 4.42737C160 1.96496 157.924 0 155.381 0H4.61884C2.07586 0 0 1.98981 0 4.42737V39.5975C0 42.0351 2.07586 44 4.61884 44H155.381C157.924 44 159.974 42.0351 159.974 39.5975L160 4.42737ZM24.9815 14.2813C24.0687 13.9265 23.0421 13.5563 21.979 13.5831C19.3948 13.6338 16.9673 15.0783 15.636 17.3337C12.8953 21.946 14.9313 28.7122 17.5677 32.4122C18.8728 34.2368 20.4129 36.2641 22.4228 36.1881C23.3301 36.1529 23.9738 35.8891 24.6399 35.6161C25.4111 35.3 26.2122 34.9717 27.4867 34.9717C28.6826 34.9717 29.4457 35.287 30.1786 35.5898C30.8854 35.8818 31.5644 36.1623 32.5767 36.1375C34.691 36.1121 36.0222 34.3128 37.2752 32.4629C38.7892 30.3848 39.3896 28.3068 39.4157 28.2054C39.4157 28.2054 35.3697 26.7102 35.3175 22.174C35.2974 19.2636 37.2003 17.4974 38.1453 16.8058C38.4264 16.6001 38.6228 16.4895 38.6586 16.4721C38.2392 15.8787 37.7674 15.4029 37.2773 15.0215C35.632 13.7417 33.7786 13.5266 32.9944 13.5071C32.5347 13.458 32.0779 13.4802 31.6313 13.5478C30.6679 13.6936 29.7517 14.051 28.9547 14.3618C28.2118 14.6515 27.5725 14.9009 27.0952 14.9009C26.977 14.9009 26.853 14.8882 26.7233 14.8653C26.2723 14.7858 25.7537 14.5831 25.1874 14.3616L24.9815 14.2813ZM26.8332 12.8961C26.8394 12.9817 26.8484 13.0671 26.8602 13.1523C26.8905 13.1545 26.9208 13.1564 26.9512 13.1579C26.9992 13.1604 27.0472 13.162 27.0952 13.1629C27.6117 13.1717 28.1302 13.086 28.6307 12.927C28.7055 12.9032 28.7799 12.8778 28.854 12.8508C29.5449 12.5986 30.1952 12.2095 30.7514 11.7409C31.0074 11.5252 31.2434 11.2927 31.4543 11.0489C32.1067 10.2413 32.6368 9.26561 32.8918 8.21441C32.9939 7.79325 33.052 7.35996 33.0559 6.92051C33.0579 6.70138 33.0466 6.48073 33.0205 6.25927C32.9579 6.26237 32.8946 6.26692 32.8309 6.27291C32.7233 6.283 32.6142 6.29716 32.5039 6.3152C32.0254 6.39343 31.5261 6.5445 31.0367 6.75229C30.0628 7.16578 29.1284 7.80393 28.4786 8.54004C27.8783 9.23312 27.3082 10.1906 27.0191 11.2237L27.0126 11.2475C26.8643 11.7858 26.7928 12.3442 26.8332 12.8961ZM35.7172 16.3185C35.6011 16.4383 35.4846 16.5648 35.3688 16.6982C34.3293 17.8965 33.2833 19.7393 33.3003 22.1954C33.3335 25.0811 34.6611 27.059 35.9863 28.2839C36.3146 28.5873 36.6418 28.8442 36.9482 29.0591C36.6528 29.7121 36.219 30.5349 35.6216 31.3549L35.6021 31.3816L35.5835 31.4091C34.9477 32.3479 34.4189 33.0741 33.8622 33.5794C33.346 34.0481 32.9463 34.1983 32.5515 34.203L32.5251 34.2035C31.9786 34.2169 31.6562 34.0936 30.9371 33.7967C30.1604 33.476 29.0895 33.0371 27.4867 33.0371C25.8999 33.0371 24.8294 33.4373 24.0105 33.7704L23.9224 33.8062C23.2001 34.1002 22.8708 34.2343 22.3424 34.2551C22.1188 34.2633 21.7375 34.1703 21.1174 33.6077C20.4956 33.0434 19.8953 32.2463 19.2322 31.3193C18.078 29.699 17.0195 27.3424 16.5728 24.8831C16.1234 22.409 16.3323 20.0692 17.3886 18.2916L17.3916 18.2867C18.3955 16.5858 20.1945 15.5531 22.0203 15.5173L22.0321 15.517C22.5836 15.5031 23.2143 15.6862 24.0809 16.019C24.1693 16.0529 24.2652 16.0904 24.366 16.1298L24.38 16.1353C24.7 16.2605 25.067 16.404 25.3949 16.514C25.83 16.66 26.439 16.8355 27.0952 16.8355C27.7929 16.8355 28.4624 16.6169 28.8991 16.4623C29.1373 16.378 29.4766 16.2464 29.7884 16.1254C29.9241 16.0728 30.0546 16.0222 30.1693 15.9784C30.2321 15.9544 30.2902 15.9324 30.3419 15.9132C31.3225 15.5494 32.0995 15.3581 32.7713 15.4298L32.8565 15.4389L32.942 15.441C33.4695 15.4541 34.6274 15.5931 35.7172 16.3185ZM61.0281 30.5055H63.769L58.5745 14.8948H55.3638L50.1955 30.5055H52.858L54.2937 25.9186H59.5141L61.0281 30.5055ZM57.7131 19.9125L59.0704 23.9926H54.7635L56.0947 19.9125L56.1765 19.6013C56.4761 18.4605 56.7078 17.5778 56.8517 16.9729H56.9038C57.2954 18.5187 57.5564 19.5071 57.7131 19.9125ZM75.4368 29.2637C76.507 28.1487 77.0552 26.6535 77.0552 24.7275C77.0552 23.0296 76.6115 21.6358 75.6979 20.5461C74.7843 19.5071 73.6357 18.9749 72.2784 18.9749C70.5295 18.9749 69.2244 19.6591 68.363 21.0022H68.3108L68.1541 19.2283H65.8832C65.9616 20.4954 65.9877 21.7371 65.9877 22.9282V35.067H68.5457V29.1624C69.2244 30.2267 70.3207 30.7589 71.8607 30.7589C73.2964 30.7589 74.471 30.2521 75.4368 29.2637ZM73.688 22.1173C74.1839 22.8269 74.4449 23.7392 74.4449 24.8289C74.4449 26.0199 74.1839 26.983 73.6357 27.6925C73.0876 28.4274 72.3306 28.7822 71.3648 28.7822C70.5556 28.7822 69.8769 28.5035 69.3549 27.9459C68.8329 27.3884 68.5718 26.6788 68.5718 25.8679V23.9926C68.5979 23.7392 68.6241 23.4858 68.7023 23.2323C68.859 22.5481 69.1983 22.0159 69.7204 21.6104C70.2424 21.205 70.8167 21.0022 71.4431 21.0022C72.3829 21.0022 73.1398 21.3824 73.688 22.1173ZM88.8014 29.2637C89.8717 28.1487 90.4198 26.6535 90.4198 24.7275C90.4198 23.0296 89.9499 21.6358 89.0364 20.5461C88.1228 19.5071 86.9743 18.9749 85.617 18.9749C83.8681 18.9749 82.5629 19.6591 81.7015 21.0022H81.6493L81.4927 19.2283H79.2218C79.3 20.4954 79.3261 21.7371 79.3261 22.9282V35.067H81.9103V29.1624C82.589 30.2267 83.6853 30.7589 85.2254 30.7589C86.661 30.7589 87.8357 30.2521 88.8014 29.2637ZM87.0265 22.1173C87.5224 22.8269 87.7834 23.7392 87.7834 24.8289C87.7834 26.0199 87.5224 26.983 86.9743 27.6925C86.4261 28.4274 85.6691 28.7822 84.7034 28.7822C83.8942 28.7822 83.2155 28.5035 82.6934 27.9459C82.1713 27.3884 81.9103 26.6788 81.9103 25.8679V23.9926C81.9103 23.7898 81.9625 23.5364 82.0408 23.2323C82.1974 22.5481 82.5368 22.0159 83.0588 21.6104C83.5808 21.205 84.1552 21.0022 84.7816 21.0022C85.7213 21.0022 86.4784 21.3824 87.0265 22.1173ZM103.889 29.3651C104.855 28.5288 105.324 27.4391 105.324 26.1213C105.324 25.0316 105.011 24.1446 104.306 23.4351C103.654 22.7002 102.636 22.0666 101.253 21.5344C100.104 21.0783 99.3209 20.6981 98.9032 20.318C98.4073 19.9379 98.1724 19.4057 98.1724 18.7975C98.1724 18.24 98.4073 17.7585 98.825 17.3784C99.347 16.9475 100.052 16.7194 100.965 16.7194C102.114 16.7194 103.132 16.9475 104.045 17.429L104.698 15.4017C103.732 14.9202 102.505 14.6667 101.044 14.6667C99.4252 14.6667 98.094 15.0722 97.1022 15.8832C96.1102 16.6941 95.6143 17.7331 95.6143 19.0256C95.6143 21.0022 97.0238 22.4974 99.8429 23.5111C100.887 23.8912 101.618 24.2967 102.062 24.7275C102.505 25.1583 102.74 25.6905 102.74 26.3241C102.74 27.0336 102.479 27.5912 101.931 28.022C101.383 28.4528 100.626 28.6555 99.6601 28.6555C98.3028 28.6555 97.05 28.3514 95.9275 27.6925L95.3272 29.7706C96.3974 30.4041 97.7808 30.7335 99.5036 30.7335C101.383 30.7335 102.845 30.2774 103.889 29.3651ZM111.015 21.1289H113.86L113.886 19.2536H111.041V16.4407L108.509 17.1756V19.2283H106.812V21.1036H108.509V26.7802C108.509 28.1994 108.796 29.213 109.37 29.8213C109.945 30.4295 110.728 30.7335 111.746 30.7335C112.581 30.7335 113.26 30.6322 113.756 30.4548L113.677 28.5542C113.364 28.6555 112.999 28.6808 112.529 28.6808C111.511 28.6808 111.015 27.9966 111.015 26.6028V21.1289ZM125.11 29.0356C126.128 27.9206 126.65 26.5014 126.65 24.7782C126.65 23.1056 126.154 21.7118 125.136 20.6475C124.118 19.5577 122.735 19.0002 121.038 19.0002C119.289 19.0002 117.88 19.5577 116.836 20.6728C115.792 21.7878 115.27 23.207 115.27 24.9556C115.27 26.6282 115.766 28.022 116.784 29.1117C117.802 30.2014 119.159 30.7589 120.856 30.7589C122.631 30.7589 124.04 30.176 125.11 29.0356ZM123.309 22.168C123.753 22.9029 123.988 23.7898 123.988 24.8289C123.988 25.8679 123.753 26.7549 123.283 27.5151C122.709 28.4274 121.952 28.8836 120.96 28.8836C119.942 28.8836 119.159 28.4274 118.611 27.5405C118.167 26.8055 117.932 25.9186 117.932 24.8796C117.932 23.8152 118.141 22.9029 118.611 22.168C119.159 21.281 119.942 20.8249 120.986 20.8249C122.004 20.8249 122.761 21.281 123.309 22.168ZM134.22 21.357C134.481 21.357 134.768 21.3824 135.029 21.4331V19.0509C134.821 19.0256 134.612 19.0002 134.377 19.0002C133.724 19.0002 133.072 19.2283 132.523 19.6084C131.949 20.0393 131.506 20.6475 131.245 21.3824H131.166L131.062 19.2283H128.817C128.869 20.4194 128.895 21.5851 128.895 22.7762V30.4801H131.479V24.5755C131.479 23.6632 131.714 22.9282 132.132 22.3454C132.602 21.6865 133.307 21.357 134.22 21.357ZM146.462 25.4878C146.541 25.1077 146.567 24.7275 146.567 24.3474C146.567 22.9282 146.228 21.7625 145.523 20.7995C144.687 19.6084 143.408 19.0002 141.738 19.0002C140.041 19.0002 138.684 19.5831 137.692 20.7995C136.726 21.9146 136.256 23.3337 136.256 25.0316C136.256 26.7549 136.778 28.1233 137.796 29.1624C138.814 30.2014 140.224 30.7082 142.025 30.7082C143.513 30.7082 144.818 30.4801 145.914 30.024L145.523 28.3007C144.583 28.6555 143.539 28.8329 142.39 28.8329C141.346 28.8329 140.511 28.5795 139.858 28.0473C139.128 27.4644 138.762 26.6028 138.736 25.4878H146.462ZM143.617 21.7625C143.957 22.2947 144.139 22.9536 144.113 23.6885H138.736C138.814 22.9282 139.075 22.2693 139.493 21.7371C140.015 21.0529 140.72 20.7235 141.555 20.7235C142.495 20.7235 143.174 21.0529 143.617 21.7625Z" fill="#686869"/>
</svg>
