<svg width="36" height="36" viewBox="0 0 36 36" fill="none" xmlns="http://www.w3.org/2000/svg">
<path fill-rule="evenodd" clip-rule="evenodd" d="M18 34C26.8366 34 34 26.8366 34 18C34 9.16344 26.8366 2 18 2C9.16344 2 2 9.16344 2 18C2 26.8366 9.16344 34 18 34ZM36 18C36 27.9411 27.9411 36 18 36C8.05888 36 0 27.9411 0 18C0 8.05887 8.05888 0 18 0C27.9411 0 36 8.05887 36 18Z" fill="#C7CACF"/>
<path d="M25.3051 8H10.695C9.20663 8 8 9.20653 8 10.6949V25.3047C8 26.7931 9.20656 27.9996 10.695 27.9996H17.9005L17.913 20.8531H16.0561C15.8147 20.8531 15.6189 20.6579 15.6181 20.4166L15.609 18.1128C15.608 17.8703 15.8046 17.673 16.0471 17.673H17.9008V15.4471C17.9008 12.8639 19.4784 11.4574 21.7828 11.4574H23.6738C23.9156 11.4574 24.112 11.6535 24.112 11.8955V13.8379C24.112 14.0799 23.9158 14.276 23.6741 14.276L22.5136 14.2767C21.2604 14.2767 21.0176 14.8721 21.0176 15.7462V17.6733H23.7713C24.0339 17.6733 24.2374 17.9024 24.2064 18.1628L23.9333 20.4666C23.9073 20.6872 23.7202 20.8532 23.4983 20.8532H21.03L21.0175 28H25.305C26.7934 28 28 26.7933 28 25.305V10.6949C28.0001 9.2066 26.7934 8 25.3051 8Z" fill="#C7CACF"/>
</svg>
