<svg width="154" height="44" viewBox="0 0 154 44" fill="none" xmlns="http://www.w3.org/2000/svg">
<path fill-rule="evenodd" clip-rule="evenodd" d="M148.296 42H5.7037C3.67208 42 2.08542 40.4857 2.08542 38.5V5.5C2.08542 3.51427 3.67208 2 5.7037 2H148.296C150.328 2 151.915 3.51427 151.915 5.5V38.5C151.915 40.4857 150.328 42 148.296 42ZM148.296 44H5.7037C2.50963 44 0 41.58 0 38.5V5.5C0 2.42 2.50963 0 5.7037 0H148.296C151.49 0 154 2.42 154 5.5V38.5C154 41.58 151.49 44 148.296 44ZM72.779 26.0334C72.779 23.2834 74.9464 21.3034 77.6842 21.3034C80.422 21.3034 82.5894 23.1734 82.5894 26.0334C82.5894 28.7834 80.422 30.7634 77.6842 30.7634C74.9464 30.7634 72.779 28.6734 72.779 26.0334ZM74.9464 25.9234C74.9464 27.5734 76.2012 28.7834 77.6842 28.7834C79.1672 28.7834 80.422 27.5734 80.422 25.9234C80.422 24.1634 79.1672 23.0634 77.6842 23.0634C76.2012 23.0634 74.9464 24.2734 74.9464 25.9234ZM62.1701 26.0334C62.1701 23.2834 64.3375 21.3034 67.0753 21.3034C69.8131 21.3034 71.9805 23.1734 71.9805 26.0334C71.9805 28.7834 69.8131 30.7634 67.0753 30.7634C64.3375 30.7634 62.1701 28.6734 62.1701 26.0334ZM64.3375 25.9234C64.3375 27.5734 65.5924 28.7834 67.0753 28.7834C68.5583 28.7834 69.8131 27.5734 69.8131 25.9234C69.8131 24.1634 68.5583 23.0634 67.0753 23.0634C65.5924 23.0634 64.3375 24.2734 64.3375 25.9234ZM54.4131 24.7134V22.7334H61.4857C61.5998 23.0634 61.5998 23.5034 61.5998 23.9434C61.5998 25.3734 61.1435 27.2434 59.7746 28.5634C58.4057 29.9934 56.8086 30.6534 54.5272 30.6534C50.4205 30.6534 46.8842 27.3534 46.8842 23.3934C46.8842 19.4334 50.4205 16.1334 54.5272 16.1334C56.8086 16.1334 58.4057 17.0134 59.6605 18.1134L58.1775 19.5434C57.2649 18.7734 56.0101 18.1134 54.4131 18.1134C51.4472 18.1134 49.0516 20.4234 49.0516 23.3934C49.0516 26.3634 51.3331 28.6734 54.4131 28.6734C56.3524 28.6734 57.4931 27.9034 58.1775 27.2434C58.7479 26.6934 59.2042 25.8134 59.3183 24.7134H54.4131ZM102.096 21.3034C104.606 21.3034 105.746 23.1734 106.203 24.2734L106.431 24.8234L99.9286 27.4634C100.499 28.4534 101.183 28.8934 102.324 28.8934C103.465 28.8934 104.149 28.3434 104.72 27.5734L106.317 28.6734C105.861 29.4434 104.492 30.7634 102.324 30.7634C99.5864 30.7634 97.5331 28.6734 97.5331 26.0334C97.5331 23.1734 99.5864 21.3034 102.096 21.3034ZM102.096 23.0634C101.069 23.0634 99.5864 24.0534 99.5864 25.8134L103.921 24.0534C103.693 23.5034 102.895 23.0634 102.096 23.0634ZM96.3923 30.3234H94.225V16.5734H96.3923V30.3234ZM88.179 21.1934C89.3198 21.1934 90.2324 21.7434 90.8027 22.2934V21.5234H92.8561V29.8834C92.8561 33.2934 90.8027 34.7234 88.2931 34.7234C85.8975 34.7234 84.5286 33.1834 83.9583 31.9734L85.7835 31.2034C86.0116 31.9734 86.9242 32.8534 88.179 32.8534C89.7761 32.8534 90.8027 31.8634 90.8027 30.1034V29.4434H90.6887C90.2324 29.9934 89.3198 30.5434 88.179 30.5434C85.6694 30.5434 83.502 28.5634 83.502 25.9234C83.502 23.2834 85.7835 21.1934 88.179 21.1934ZM85.5553 25.9234C85.5553 27.5734 86.8101 28.7834 88.2931 28.7834C89.7761 28.7834 90.9168 27.5734 90.9168 25.9234C90.9168 24.2734 89.7761 23.0634 88.2931 23.0634C86.8101 23.0634 85.5553 24.2734 85.5553 25.9234ZM110.994 16.5734H116.127C118.523 16.5734 120.804 18.2234 120.804 20.8634C120.804 23.5034 118.523 25.1534 116.127 25.1534H113.161V30.3234H110.994V16.5734ZM113.161 23.1734H116.241C117.724 23.1734 118.637 21.9634 118.751 20.7534C118.751 19.7634 117.838 18.4434 116.241 18.4434H113.161V23.1734ZM125.595 23.2834C126.166 21.8534 127.763 21.1934 129.36 21.1934C131.755 21.1934 133.695 22.6234 133.923 25.0434V30.3234H131.869V29.2234H131.755C131.185 29.8834 130.501 30.5434 129.018 30.5434C127.192 30.5434 125.481 29.3334 125.481 27.4634C125.481 25.4834 127.535 24.3834 129.588 24.3834C130.501 24.3834 131.413 24.7134 131.755 24.9334V24.8234C131.641 23.7234 130.615 23.0634 129.474 23.0634C128.675 23.0634 127.991 23.2834 127.535 24.0534L125.595 23.2834ZM127.421 27.5734C127.421 28.4534 128.447 28.7834 129.132 28.7834C130.272 28.7834 131.413 27.9034 131.641 26.5834C131.584 26.5613 131.528 26.5392 131.472 26.5174L131.471 26.517C130.974 26.3212 130.522 26.1434 129.702 26.1434C128.675 26.1434 127.421 26.4734 127.421 27.5734ZM138.714 27.4634L141.109 21.5234H143.391L137.573 34.5034H135.406L137.573 29.8834L133.809 21.5234H136.09L138.6 27.4634H138.714ZM124.112 30.3234H121.945V16.5734H124.112V30.3234ZM13.1985 11.3961C13.1755 11.4787 13.1632 11.5663 13.1632 11.658V32.3419C13.1632 32.4335 13.1755 32.5211 13.1984 32.6037L24.195 21.9999L13.1985 11.3961ZM16.4955 11.7392L25.6656 20.5818L28.2856 18.0553L16.4955 11.7392ZM30.1764 19.0682L34.0193 21.1269C34.7316 21.5085 34.7316 22.4914 34.0193 22.873L30.1766 24.9316L27.1362 21.9999L30.1764 19.0682ZM28.2858 25.9445L16.495 32.261L25.6656 23.4179L28.2858 25.9445ZM11.0778 11.658C11.0778 9.36749 13.6463 7.92192 15.7314 9.03894L35.0363 19.3809C37.1732 20.5256 37.1732 23.4743 35.0363 24.619L15.7314 34.961C13.6463 36.078 11.0778 34.6324 11.0778 32.3419V11.658Z" fill="#686869"/>
</svg>
