<svg width="36" height="36" viewBox="0 0 36 36" fill="none" xmlns="http://www.w3.org/2000/svg">
<path fill-rule="evenodd" clip-rule="evenodd" d="M18 36C27.9411 36 36 27.9411 36 18C36 8.05887 27.9411 0 18 0C8.05887 0 0 8.05887 0 18C0 27.9411 8.05887 36 18 36ZM22.1644 7.69748H13.8355C10.4507 7.69748 7.69694 10.4512 7.69694 13.836V22.1649C7.69694 25.5496 10.4507 28.3035 13.8356 28.3035H22.1644C25.5491 28.3035 28.3031 25.5498 28.3031 22.1649V13.836C28.303 10.4512 25.5492 7.69748 22.1644 7.69748ZM26.2301 22.165C26.2301 24.4103 24.4098 26.2306 22.1644 26.2306H13.8356C11.5902 26.2306 9.76997 24.4103 9.76997 22.165V13.8361C9.76997 11.5908 11.5902 9.77043 13.8356 9.77043H22.1644C24.4098 9.77043 26.2301 11.5908 26.2301 13.8361V22.165ZM12.6706 18.0003C12.6706 15.0617 15.0615 12.6708 18.0002 12.6708C20.9388 12.6708 23.3295 15.0617 23.3295 18.0003C23.3295 20.939 20.9388 23.3297 18.0002 23.3297C15.0615 23.3297 12.6706 20.9388 12.6706 18.0003ZM14.7436 18.0003C14.7436 19.7989 16.2017 21.2567 18.0002 21.2567C19.7987 21.2567 21.2566 19.7988 21.2566 18.0003C21.2566 16.2017 19.7987 14.7437 18.0002 14.7437C16.2017 14.7437 14.7436 16.2017 14.7436 18.0003Z" fill="#83CD26"/>
</svg>
