<svg width="34" height="33" viewBox="0 0 34 33" fill="none" xmlns="http://www.w3.org/2000/svg">
<path fill-rule="evenodd" clip-rule="evenodd" d="M17.0997 32.0469C26.1387 32.0469 33.4663 24.8834 33.4663 16.0469C33.4663 7.21032 26.1387 0.046875 17.0997 0.046875C8.06072 0.046875 0.733154 7.21032 0.733154 16.0469C0.733154 24.8834 8.06072 32.0469 17.0997 32.0469ZM20.8862 6.88906H13.3132C10.2355 6.88906 7.73164 9.33681 7.73164 12.3456V19.749C7.73164 22.7576 10.2355 25.2056 13.3132 25.2056H20.8863C23.9638 25.2056 26.4679 22.7577 26.4679 19.749V12.3456C26.4678 9.33681 23.9639 6.88906 20.8862 6.88906ZM24.583 19.7491C24.583 21.7449 22.9279 23.3629 20.8863 23.3629H13.3132C11.2716 23.3629 9.61655 21.7449 9.61655 19.7491V12.3456C9.61655 10.3497 11.2716 8.73169 13.3132 8.73169H20.8863C22.9279 8.73169 24.583 10.3498 24.583 12.3456V19.7491ZM12.2538 16.0471C12.2538 13.435 14.4277 11.3098 17.0997 11.3098C19.7717 11.3098 21.9454 13.435 21.9454 16.0471C21.9454 18.6593 19.7717 20.7843 17.0997 20.7843C14.4277 20.7843 12.2538 18.6591 12.2538 16.0471ZM14.1386 16.0471C14.1386 17.6459 15.4644 18.9417 17.0997 18.9417C18.735 18.9417 20.0606 17.6458 20.0606 16.0471C20.0606 14.4483 18.735 13.1524 17.0997 13.1524C15.4644 13.1524 14.1386 14.4484 14.1386 16.0471Z" fill="#686869"/>
</svg>
