<svg width="245" height="72" viewBox="0 0 245 72" fill="none" xmlns="http://www.w3.org/2000/svg">
<path d="M68.1452 38.4582C66.7969 38.2564 65.5351 39.2025 65.3372 40.5775C64.3723 47.1748 61.4158 53.154 56.7769 57.8971C44.9384 69.9691 25.6654 69.9691 13.827 57.8971C1.98853 45.8251 1.98853 26.1718 13.827 14.0998C25.6654 2.02777 44.9384 2.02777 56.7769 14.0998C57.5067 14.844 57.5067 16.0424 56.7769 16.7867C56.0718 17.5057 54.8471 17.5057 54.142 16.7867C49.1072 11.6526 42.4149 8.82695 35.3019 8.82695C28.189 8.82695 21.4966 11.6526 16.4619 16.7867C6.07076 27.3828 6.07076 44.6141 16.4619 55.2102C21.6574 60.5083 28.4859 63.1573 35.3019 63.1573C42.118 63.1573 48.9464 60.5083 54.142 55.2102C56.8016 52.4981 56.8016 48.0957 54.142 45.3836C52.8555 44.0717 51.1484 43.3526 49.3299 43.3526C47.5115 43.3526 45.8044 44.0717 44.5178 45.3836C39.4336 50.5555 31.1702 50.5555 26.0984 45.3836C23.6367 42.8733 22.2883 39.5431 22.2883 35.9858C22.2883 32.4285 23.649 29.0983 26.0984 26.5881C28.5477 24.0778 31.8258 22.7028 35.3143 22.7028C38.7904 22.7028 42.0685 24.0904 44.5178 26.5881C45.2477 27.3323 45.2477 28.5307 44.5178 29.2749C43.788 30.0192 42.6128 30.0192 41.883 29.2749C40.1264 27.4837 37.7884 26.4998 35.3019 26.4998C32.8155 26.4998 30.4775 27.4837 28.7209 29.2749C26.9643 31.0662 25.9994 33.4503 25.9994 35.9858C25.9994 38.5213 26.9643 40.9054 28.7209 42.6967C30.5393 44.551 32.9144 45.4719 35.3019 45.4719C37.6894 45.4719 40.0645 44.551 41.883 42.6967C42.8478 41.7128 42.8478 40.1107 41.883 39.1268C40.9181 38.1429 39.347 38.1429 38.3821 39.1268C36.6874 40.855 33.9164 40.855 32.2217 39.1268C31.4053 38.2942 30.9476 37.1716 30.9476 35.9858C30.9476 34.8001 31.4053 33.69 32.2217 32.8448C33.867 31.1671 36.7369 31.1671 38.3821 32.8448C38.4193 32.8827 38.4687 32.9079 38.5058 32.9457C38.5924 33.0214 38.679 33.1097 38.7656 33.1728C40.0398 34.2955 41.6108 34.8757 43.1942 34.8757C44.9384 34.8757 46.6827 34.1946 48.0063 32.8448C50.6659 30.1327 50.6659 25.7303 48.0063 23.0182C44.6168 19.5618 40.1016 17.657 35.3019 17.657C30.5022 17.657 25.987 19.5618 22.5976 23.0308C19.2081 26.4871 17.3278 31.0914 17.3278 35.9858C17.3278 40.8802 19.1957 45.4845 22.5976 48.9408C26.0984 52.5107 30.7001 54.302 35.3019 54.302C39.9037 54.302 44.5055 52.5107 48.0063 48.9534C48.0063 48.9534 48.0063 48.9534 48.0187 48.9534C48.7238 48.2344 49.9484 48.2344 50.6535 48.9534C51.3834 49.6977 51.3834 50.8961 50.6535 51.6403C42.1922 60.2686 28.424 60.2686 19.9627 51.6403C11.5013 43.012 11.5013 28.9722 19.9627 20.3439C24.0573 16.1685 29.5126 13.8601 35.3019 13.8601C41.1036 13.8601 46.5466 16.1559 50.6412 20.3439C51.9277 21.6558 53.6348 22.3748 55.4532 22.3748C57.2717 22.3748 58.9788 21.6558 60.2653 20.3439C62.8012 17.758 62.8878 13.6457 60.5869 10.9209C60.5004 10.7822 60.389 10.6434 60.2653 10.5299C46.5095 -3.50996 24.0944 -3.50996 10.3262 10.5299C-3.44205 24.5698 -3.44205 47.4271 10.3262 61.467C17.2165 68.4932 26.2592 72 35.3019 72C44.3447 72 53.3874 68.4932 60.2777 61.467C65.6712 55.9671 69.1225 49.0039 70.2358 41.3343C70.4337 39.9467 69.506 38.6601 68.1452 38.4582Z" fill="#83CD26"/>
<path d="M84.9618 38C84.6797 38 84.4489 37.9229 84.2693 37.7686C84.0898 37.5886 84 37.3571 84 37.0743V11.9643C84 11.6814 84.0898 11.45 84.2693 11.27C84.4489 11.09 84.6797 11 84.9618 11H88.0013C88.5399 11 88.9246 11.2443 89.1555 11.7329L96.5809 25.6186L104.083 11.7329C104.34 11.2443 104.725 11 105.238 11H108.239C108.521 11 108.751 11.09 108.931 11.27C109.111 11.45 109.2 11.6814 109.2 11.9643V37.0743C109.2 37.3571 109.111 37.5886 108.931 37.7686C108.751 37.9229 108.521 38 108.239 38H105.007C104.75 38 104.532 37.91 104.353 37.73C104.173 37.55 104.083 37.3314 104.083 37.0743V20.3729L98.697 30.6714C98.3636 31.2371 97.9275 31.52 97.3889 31.52H95.8115C95.2728 31.52 94.8368 31.2371 94.5034 30.6714L89.117 20.3729V37.0743C89.117 37.3314 89.0272 37.55 88.8477 37.73C88.6938 37.91 88.4758 38 88.1936 38H84.9618Z" fill="#4E5460"/>
<path d="M115.454 38C115.249 38 115.057 37.9229 114.877 37.7686C114.723 37.6143 114.646 37.4214 114.646 37.19L114.723 36.8429L123.995 11.9643C124.175 11.3214 124.624 11 125.342 11H129.536C130.202 11 130.651 11.3214 130.882 11.9643L140.154 36.8429C140.18 36.92 140.193 37.0357 140.193 37.19C140.193 37.4214 140.116 37.6143 139.962 37.7686C139.808 37.9229 139.629 38 139.423 38H136.076C135.743 38 135.486 37.9229 135.307 37.7686C135.127 37.6143 135.012 37.4471 134.96 37.2671L133.152 32.5614H121.725L119.917 37.2671C119.712 37.7557 119.34 38 118.801 38H115.454ZM131.806 28.1257L127.42 16.2071L123.072 28.1257H131.806Z" fill="#4E5460"/>
<path d="M146.632 51C146.375 51 146.157 50.91 145.978 50.73C145.798 50.55 145.708 50.3314 145.708 50.0743V11.9643C145.708 11.6814 145.785 11.45 145.939 11.27C146.119 11.09 146.35 11 146.632 11H156.596C159.726 11 162.175 11.7329 163.945 13.1986C165.74 14.6643 166.638 16.7471 166.638 19.4471C166.638 21.3243 166.176 22.9057 165.253 24.1914C164.355 25.4514 163.099 26.3643 161.483 26.93L167.1 36.7657C167.177 36.92 167.215 37.0614 167.215 37.19C167.215 37.4214 167.125 37.6143 166.946 37.7686C166.792 37.9229 166.612 38 166.407 38H162.906C162.496 38 162.175 37.91 161.944 37.73C161.739 37.55 161.547 37.2929 161.367 36.9586L156.404 27.8171H151.056V50.0743C151.056 50.3314 150.966 50.55 150.787 50.73C150.633 50.91 150.415 51 150.133 51H146.632ZM156.481 23.4586C158.02 23.4586 159.174 23.1114 159.944 22.4171C160.739 21.7229 161.136 20.72 161.136 19.4086C161.136 18.0971 160.739 17.0814 159.944 16.3614C159.174 15.6414 158.02 15.2814 156.481 15.2814H151.056V23.4586H156.481Z" fill="#4E5460"/>
<path d="M174.443 38C174.186 38 173.968 37.91 173.789 37.73C173.609 37.55 173.519 37.3314 173.519 37.0743V11.9643C173.519 11.6814 173.596 11.45 173.75 11.27C173.93 11.09 174.16 11 174.443 11H177.828C178.11 11 178.341 11.09 178.521 11.27C178.7 11.45 178.79 11.6814 178.79 11.9643V20.99L187.485 11.6943C187.819 11.2314 188.319 11 188.986 11H192.795C193 11 193.179 11.0771 193.333 11.2314C193.513 11.3857 193.603 11.5786 193.603 11.81C193.603 11.99 193.551 12.1443 193.449 12.2729L182.868 23.9214L194.18 36.6886C194.308 36.8429 194.372 37.01 194.372 37.19C194.372 37.4214 194.282 37.6143 194.103 37.7686C193.949 37.9229 193.769 38 193.564 38H189.601C188.96 38 188.46 37.7686 188.101 37.3057L178.79 27.0843V37.0743C178.79 37.3571 178.7 37.5886 178.521 37.7686C178.341 37.9229 178.11 38 177.828 38H174.443Z" fill="#4E5460"/>
<path d="M200.675 38C200.419 38 200.201 37.91 200.021 37.73C199.842 37.55 199.752 37.3314 199.752 37.0743V11.9643C199.752 11.6814 199.829 11.45 199.983 11.27C200.162 11.09 200.393 11 200.675 11H217.604C217.886 11 218.117 11.09 218.296 11.27C218.476 11.45 218.566 11.6814 218.566 11.9643V14.51C218.566 14.7929 218.476 15.0243 218.296 15.2043C218.117 15.3586 217.886 15.4357 217.604 15.4357H204.946V22.2629H216.758C217.04 22.2629 217.27 22.3529 217.45 22.5329C217.63 22.6871 217.719 22.9057 217.719 23.1886V25.58C217.719 25.8629 217.63 26.0943 217.45 26.2743C217.27 26.4286 217.04 26.5057 216.758 26.5057H204.946V33.5643H217.912C218.194 33.5643 218.425 33.6543 218.604 33.8343C218.784 34.0143 218.874 34.2457 218.874 34.5286V37.0743C218.874 37.3571 218.784 37.5886 218.604 37.7686C218.425 37.9229 218.194 38 217.912 38H200.675Z" fill="#4E5460"/>
<path d="M232.458 51C232.201 51 231.983 50.91 231.803 50.73C231.624 50.55 231.534 50.3314 231.534 50.0743V15.7443H224.417C224.16 15.7443 223.942 15.6543 223.762 15.4743C223.583 15.2943 223.493 15.0757 223.493 14.8186V11.9643C223.493 11.6814 223.57 11.45 223.724 11.27C223.904 11.09 224.134 11 224.417 11H244.038C244.32 11 244.551 11.09 244.731 11.27C244.91 11.45 245 11.6814 245 11.9643V14.8186C245 15.0757 244.91 15.2943 244.731 15.4743C244.551 15.6543 244.32 15.7443 244.038 15.7443H236.959V50.0743C236.959 50.3314 236.869 50.55 236.69 50.73C236.51 50.91 236.279 51 235.997 51H232.458Z" fill="#4E5460"/>
<path d="M89.7 65.72C87.9 65.72 86.5 65.26 85.5 64.34C84.5 63.42 84 62.0267 84 60.16V52.02C84 51.8733 84.04 51.7533 84.12 51.66C84.2133 51.5667 84.3333 51.52 84.48 51.52H86.3C86.4467 51.52 86.56 51.5667 86.64 51.66C86.7333 51.7533 86.78 51.8733 86.78 52.02V60.16C86.78 61.2267 87.0333 62.0333 87.54 62.58C88.0467 63.1133 88.7667 63.38 89.7 63.38C90.6333 63.38 91.3467 63.1133 91.84 62.58C92.3467 62.0333 92.6 61.2267 92.6 60.16V52.02C92.6 51.8733 92.6467 51.7533 92.74 51.66C92.8333 51.5667 92.9533 51.52 93.1 51.52H94.9C95.0467 51.52 95.16 51.5667 95.24 51.66C95.3333 51.7533 95.38 51.8733 95.38 52.02V60.16C95.38 62.0267 94.88 63.42 93.88 64.34C92.8933 65.26 91.5 65.72 89.7 65.72Z" fill="#4E5460"/>
<path d="M98.5378 53.4C98.4045 53.4 98.2911 53.3533 98.1978 53.26C98.1045 53.1667 98.0578 53.0533 98.0578 52.92V51.48C98.0578 51.3467 98.1045 51.2333 98.1978 51.14C98.2911 51.0467 98.4045 51 98.5378 51H100.358C100.491 51 100.604 51.0467 100.698 51.14C100.804 51.2333 100.858 51.3467 100.858 51.48V52.92C100.858 53.0533 100.811 53.1667 100.718 53.26C100.624 53.3533 100.504 53.4 100.358 53.4H98.5378ZM98.6178 65.52C98.4845 65.52 98.3711 65.4733 98.2778 65.38C98.1845 65.2867 98.1378 65.1733 98.1378 65.04V55.6C98.1378 55.4667 98.1845 55.3533 98.2778 55.26C98.3711 55.1667 98.4845 55.12 98.6178 55.12H100.278C100.424 55.12 100.538 55.1667 100.618 55.26C100.711 55.34 100.758 55.4533 100.758 55.6V65.04C100.758 65.1733 100.711 65.2867 100.618 65.38C100.538 65.4733 100.424 65.52 100.278 65.52H98.6178Z" fill="#4E5460"/>
<path d="M108.482 65.52C108.348 65.52 108.235 65.4733 108.142 65.38C108.048 65.2867 108.002 65.1733 108.002 65.04V51.8C108.002 51.6533 108.048 51.54 108.142 51.46C108.235 51.3667 108.348 51.32 108.482 51.32H110.102C110.248 51.32 110.362 51.3667 110.442 51.46C110.535 51.54 110.582 51.6533 110.582 51.8V58.64L113.942 55.46C113.982 55.4333 114.048 55.38 114.142 55.3C114.222 55.2333 114.302 55.1867 114.382 55.16C114.462 55.1333 114.562 55.12 114.682 55.12H116.542C116.675 55.12 116.782 55.16 116.862 55.24C116.942 55.32 116.982 55.4267 116.982 55.56C116.982 55.68 116.915 55.8 116.782 55.92L112.662 59.78L117.282 64.74C117.415 64.8733 117.482 64.9867 117.482 65.08C117.482 65.2133 117.435 65.32 117.342 65.4C117.262 65.48 117.162 65.52 117.042 65.52H115.142C114.955 65.52 114.815 65.5 114.722 65.46C114.642 65.4067 114.535 65.3133 114.402 65.18L110.582 61.16V65.04C110.582 65.1733 110.535 65.2867 110.442 65.38C110.362 65.4733 110.248 65.52 110.102 65.52H108.482Z" fill="#4E5460"/>
<path d="M119.378 53.4C119.244 53.4 119.131 53.3533 119.038 53.26C118.944 53.1667 118.898 53.0533 118.898 52.92V51.48C118.898 51.3467 118.944 51.2333 119.038 51.14C119.131 51.0467 119.244 51 119.378 51H121.198C121.331 51 121.444 51.0467 121.538 51.14C121.644 51.2333 121.698 51.3467 121.698 51.48V52.92C121.698 53.0533 121.651 53.1667 121.558 53.26C121.464 53.3533 121.344 53.4 121.198 53.4H119.378ZM119.458 65.52C119.324 65.52 119.211 65.4733 119.118 65.38C119.024 65.2867 118.978 65.1733 118.978 65.04V55.6C118.978 55.4667 119.024 55.3533 119.118 55.26C119.211 55.1667 119.324 55.12 119.458 55.12H121.118C121.264 55.12 121.378 55.1667 121.458 55.26C121.551 55.34 121.598 55.4533 121.598 55.6V65.04C121.598 65.1733 121.551 65.2867 121.458 65.38C121.378 65.4733 121.264 65.52 121.118 65.52H119.458Z" fill="#4E5460"/>
<path d="M128.951 65.52C127.738 65.52 126.824 65.2067 126.211 64.58C125.611 63.94 125.311 63.0067 125.311 61.78V57.24H123.731C123.598 57.24 123.484 57.1933 123.391 57.1C123.298 56.9933 123.251 56.8733 123.251 56.74V55.6C123.251 55.4667 123.298 55.3533 123.391 55.26C123.484 55.1667 123.598 55.12 123.731 55.12H125.311V51.8C125.311 51.6533 125.358 51.54 125.451 51.46C125.544 51.3667 125.658 51.32 125.791 51.32H127.411C127.558 51.32 127.671 51.3667 127.751 51.46C127.844 51.54 127.891 51.6533 127.891 51.8V55.12H130.391C130.538 55.12 130.651 55.1667 130.731 55.26C130.824 55.34 130.871 55.4533 130.871 55.6V56.74C130.871 56.8867 130.824 57.0067 130.731 57.1C130.638 57.1933 130.524 57.24 130.391 57.24H127.891V61.58C127.891 62.1533 127.991 62.5867 128.191 62.88C128.391 63.1733 128.724 63.32 129.191 63.32H130.571C130.704 63.32 130.818 63.3667 130.911 63.46C131.004 63.5533 131.051 63.6667 131.051 63.8V65.04C131.051 65.1733 131.004 65.2867 130.911 65.38C130.831 65.4733 130.718 65.52 130.571 65.52H128.951Z" fill="#4E5460"/>
</svg>
