<svg width="24" height="24" viewBox="0 0 24 24" fill="none" xmlns="http://www.w3.org/2000/svg">
<path d="M19.966 16.3992C19.9207 16.2518 19.6328 16.0347 19.1023 15.7484C18.9587 15.6581 18.7539 15.5355 18.489 15.3799C18.2238 15.2243 17.9831 15.0809 17.7673 14.9499C17.5511 14.8189 17.3486 14.692 17.1593 14.5693C17.129 14.5448 17.0344 14.4732 16.8753 14.3542C16.716 14.2356 16.5817 14.1475 16.4716 14.0901C16.3618 14.033 16.2538 14.0043 16.1477 14.0043C15.9962 14.0043 15.807 14.121 15.5798 14.3542C15.3526 14.5877 15.1442 14.8414 14.9549 15.1159C14.7655 15.3903 14.5647 15.644 14.3528 15.8773C14.1406 16.1108 13.9662 16.2274 13.83 16.2274C13.7616 16.2274 13.6764 16.2068 13.5742 16.1662C13.4721 16.1253 13.3944 16.0902 13.341 16.0619C13.2882 16.0331 13.1974 15.9759 13.0686 15.8897C12.9394 15.8037 12.8676 15.7566 12.8525 15.7484C11.8146 15.1259 10.9245 14.4135 10.182 13.6114C9.43967 12.8087 8.78045 11.8468 8.20469 10.725C8.19713 10.7086 8.15346 10.6308 8.07397 10.4916C7.99437 10.3524 7.94131 10.2543 7.9148 10.1968C7.88829 10.1395 7.85609 10.0556 7.81828 9.94504C7.78046 9.83453 7.76148 9.74247 7.76148 9.66869C7.76148 9.5214 7.86946 9.33297 8.0854 9.10368C8.30129 8.87453 8.53621 8.65745 8.78992 8.4529C9.04383 8.24835 9.27851 8.0231 9.49448 7.77755C9.71038 7.53187 9.81833 7.32728 9.81833 7.16355C9.81833 7.04899 9.79182 6.9322 9.73884 6.81351C9.68582 6.69456 9.60438 6.54942 9.49448 6.37739C9.38455 6.20544 9.31827 6.10319 9.29551 6.07028C9.18199 5.86572 9.06468 5.64672 8.94332 5.41334C8.82196 5.18001 8.6895 4.91992 8.54549 4.63337C8.4016 4.34695 8.28804 4.1258 8.20461 3.97024C7.9396 3.39719 7.73887 3.08591 7.60246 3.03695C7.5494 3.01239 7.4698 3 7.36384 3C7.15917 3 6.89217 3.04087 6.56263 3.12286C6.23298 3.20473 5.97358 3.29059 5.78415 3.3808C5.40534 3.55266 5.00385 4.0521 4.57954 4.87896C4.19317 5.64848 4 6.41012 4 7.16333C4 7.38423 4.01325 7.59915 4.03976 7.80814C4.06627 8.01691 4.11364 8.25235 4.1819 8.51442C4.25005 8.7764 4.30501 8.97102 4.34657 9.09775C4.38816 9.22457 4.46582 9.45175 4.5795 9.77938C4.69302 10.1069 4.76128 10.3074 4.78401 10.3811C5.04914 11.1836 5.36355 11.9 5.72716 12.5305C6.3254 13.5785 7.14181 14.6616 8.17591 15.7793C9.21005 16.8969 10.212 17.7792 11.1818 18.4261C11.7651 18.819 12.4282 19.1588 13.1705 19.4455C13.2388 19.4699 13.4243 19.5436 13.7272 19.6667C14.0303 19.7894 14.2406 19.8734 14.3579 19.9184C14.4753 19.9635 14.6554 20.023 14.8976 20.0967C15.1403 20.1705 15.358 20.2217 15.5512 20.2506C15.7444 20.2788 15.9433 20.2934 16.1478 20.2934C16.8446 20.2934 17.5494 20.0845 18.2615 19.667C19.0265 19.2086 19.4885 18.7746 19.6476 18.3648C19.7313 18.1603 19.8105 17.8799 19.8863 17.5236C19.9623 17.1675 20 16.879 20 16.6578C20.0002 16.5428 19.9888 16.457 19.966 16.3992Z" fill="#4E5460"/>
</svg>
