<svg width="33" height="32" viewBox="0 0 33 32" fill="none" xmlns="http://www.w3.org/2000/svg">
<g clip-path="url(#clip0)">
<path d="M16.4663 0C7.63195 0 0.466309 7.16564 0.466309 16C0.466309 24.8344 7.63195 32 16.4663 32C25.3007 32 32.4663 24.8344 32.4663 16C32.4663 7.16564 25.3007 0 16.4663 0ZM24.5808 17.7342C25.3334 18.454 26.1187 19.1411 26.7731 19.9591C27.0675 20.319 27.362 20.6789 27.5583 21.1043C27.8528 21.6933 27.5911 22.3476 27.0675 22.3804H23.7956C22.9448 22.4458 22.2904 22.1186 21.7015 21.5297C21.2434 21.0716 20.818 20.5808 20.3927 20.09C20.2291 19.8937 20.0328 19.6973 19.8037 19.5665C19.3457 19.272 18.953 19.3701 18.724 19.8282C18.4622 20.319 18.3968 20.8425 18.3641 21.3661C18.3313 22.1513 18.1023 22.3476 17.317 22.3804C15.6483 22.4458 14.0778 22.2168 12.6381 21.3661C11.362 20.6135 10.3477 19.5992 9.49698 18.4213C7.79555 16.1309 6.51948 13.6115 5.34156 11.0266C5.07981 10.4376 5.27612 10.1431 5.93052 10.1104C7.01028 10.0777 8.05731 10.0777 9.13706 10.1104C9.56242 10.1104 9.8569 10.3722 10.0205 10.7648C10.6095 12.1718 11.2966 13.546 12.18 14.7894C12.409 15.1166 12.6708 15.4438 12.998 15.7055C13.3906 15.9673 13.6524 15.8691 13.8487 15.4438C13.9469 15.182 14.0123 14.8875 14.045 14.593C14.1432 13.6115 14.1432 12.6299 13.9796 11.6483C13.8814 10.9939 13.5542 10.6012 12.9326 10.4703C12.6054 10.4049 12.6708 10.3067 12.8017 10.1104C13.0634 9.81595 13.3252 9.61963 13.816 9.61963H17.5133C18.1023 9.75051 18.2332 9.97955 18.2986 10.5685V14.6912C18.2986 14.9202 18.3968 15.6074 18.8221 15.7382C19.1493 15.8364 19.3784 15.5746 19.5747 15.3783C20.4581 14.4294 21.0798 13.317 21.6688 12.1718C21.9305 11.6483 22.1268 11.1247 22.3559 10.6012C22.5195 10.2086 22.7485 10.0123 23.2066 10.0123H26.7731C26.8712 10.0123 26.9694 10.0123 27.1003 10.045C27.6892 10.1431 27.8528 10.4049 27.6892 10.9939C27.3947 11.91 26.8385 12.6953 26.2823 13.4479C25.6933 14.2658 25.0389 15.0511 24.4499 15.9018C23.861 16.6871 23.8937 17.0798 24.5808 17.7342Z" fill="#686869"/>
</g>
<defs>
<clipPath id="clip0">
<rect width="32" height="32" fill="white" transform="translate(0.466309)"/>
</clipPath>
</defs>
</svg>
